<mxfile host="app.diagrams.net" modified="2023-09-03T05:04:42.145Z" agent="Mozilla/5.0 (Windows NT 10.0; Win64; x64) AppleWebKit/537.36 (KHTML, like Gecko) Chrome/115.0.0.0 Safari/537.36" etag="SDqSKVFR39rC5WfkC7q3" version="21.7.2" type="device">
  <diagram name="Page-1" id="_z433orRp_9Y9JhJ7o_p">
    <mxGraphModel dx="1114" dy="610" grid="1" gridSize="10" guides="1" tooltips="1" connect="1" arrows="1" fold="1" page="1" pageScale="1" pageWidth="850" pageHeight="1100" background="#fafafa" math="0" shadow="0">
      <root>
        <mxCell id="0" />
        <mxCell id="1" parent="0" />
        <mxCell id="WwpHLqtZTItnA_I-AUYj-1" value="tbl_pengguna" style="rounded=0;whiteSpace=wrap;html=1;" parent="1" vertex="1">
          <mxGeometry x="350" y="200" width="120" height="60" as="geometry" />
        </mxCell>
        <mxCell id="WwpHLqtZTItnA_I-AUYj-2" value="tbl_jenama" style="rounded=0;whiteSpace=wrap;html=1;" parent="1" vertex="1">
          <mxGeometry x="350" y="885" width="120" height="60" as="geometry" />
        </mxCell>
        <mxCell id="WwpHLqtZTItnA_I-AUYj-3" value="tbl_laptop" style="rounded=0;whiteSpace=wrap;html=1;" parent="1" vertex="1">
          <mxGeometry x="350" y="615" width="120" height="60" as="geometry" />
        </mxCell>
        <mxCell id="WwpHLqtZTItnA_I-AUYj-7" value="harga" style="ellipse;whiteSpace=wrap;html=1;" parent="1" vertex="1">
          <mxGeometry x="540" y="440" width="160" height="40" as="geometry" />
        </mxCell>
        <mxCell id="WwpHLqtZTItnA_I-AUYj-9" value="&lt;u&gt;idpengguna&lt;/u&gt;" style="ellipse;whiteSpace=wrap;html=1;" parent="1" vertex="1">
          <mxGeometry x="110" y="400" width="160" height="40" as="geometry" />
        </mxCell>
        <mxCell id="WwpHLqtZTItnA_I-AUYj-10" value="nama" style="ellipse;whiteSpace=wrap;html=1;" parent="1" vertex="1">
          <mxGeometry x="120" y="210" width="160" height="40" as="geometry" />
        </mxCell>
        <mxCell id="WwpHLqtZTItnA_I-AUYj-11" value="katalaluan" style="ellipse;whiteSpace=wrap;html=1;" parent="1" vertex="1">
          <mxGeometry x="120" y="160" width="160" height="40" as="geometry" />
        </mxCell>
        <mxCell id="WwpHLqtZTItnA_I-AUYj-12" value="tel" style="ellipse;whiteSpace=wrap;html=1;" parent="1" vertex="1">
          <mxGeometry x="120" y="260" width="160" height="40" as="geometry" />
        </mxCell>
        <mxCell id="WwpHLqtZTItnA_I-AUYj-13" value="emel" style="ellipse;whiteSpace=wrap;html=1;" parent="1" vertex="1">
          <mxGeometry x="540" y="210" width="160" height="40" as="geometry" />
        </mxCell>
        <mxCell id="WwpHLqtZTItnA_I-AUYj-14" value="kedai" style="ellipse;whiteSpace=wrap;html=1;" parent="1" vertex="1">
          <mxGeometry x="540" y="160" width="160" height="40" as="geometry" />
        </mxCell>
        <mxCell id="WwpHLqtZTItnA_I-AUYj-15" value="jenis" style="ellipse;whiteSpace=wrap;html=1;" parent="1" vertex="1">
          <mxGeometry x="540" y="260" width="160" height="40" as="geometry" />
        </mxCell>
        <mxCell id="WwpHLqtZTItnA_I-AUYj-16" value="gambar" style="ellipse;whiteSpace=wrap;html=1;" parent="1" vertex="1">
          <mxGeometry x="540" y="720" width="160" height="40" as="geometry" />
        </mxCell>
        <mxCell id="WwpHLqtZTItnA_I-AUYj-17" value="&lt;u&gt;idjenama&lt;/u&gt;" style="ellipse;whiteSpace=wrap;html=1;" parent="1" vertex="1">
          <mxGeometry x="120" y="625" width="160" height="40" as="geometry" />
        </mxCell>
        <mxCell id="WwpHLqtZTItnA_I-AUYj-18" value="ram" style="ellipse;whiteSpace=wrap;html=1;" parent="1" vertex="1">
          <mxGeometry x="540" y="665" width="160" height="40" as="geometry" />
        </mxCell>
        <mxCell id="WwpHLqtZTItnA_I-AUYj-19" value="&lt;u&gt;idlaptop&lt;/u&gt;" style="ellipse;whiteSpace=wrap;html=1;" parent="1" vertex="1">
          <mxGeometry x="120" y="565" width="160" height="40" as="geometry" />
        </mxCell>
        <mxCell id="WwpHLqtZTItnA_I-AUYj-20" value="jenama" style="ellipse;whiteSpace=wrap;html=1;" parent="1" vertex="1">
          <mxGeometry x="550" y="895" width="160" height="40" as="geometry" />
        </mxCell>
        <mxCell id="WwpHLqtZTItnA_I-AUYj-21" value="&lt;u&gt;idjenama&lt;/u&gt;" style="ellipse;whiteSpace=wrap;html=1;" parent="1" vertex="1">
          <mxGeometry x="130" y="895" width="160" height="40" as="geometry" />
        </mxCell>
        <mxCell id="WwpHLqtZTItnA_I-AUYj-23" value="" style="endArrow=none;html=1;rounded=0;entryX=1;entryY=0.5;entryDx=0;entryDy=0;exitX=0;exitY=0;exitDx=0;exitDy=0;" parent="1" source="WwpHLqtZTItnA_I-AUYj-1" target="WwpHLqtZTItnA_I-AUYj-11" edge="1">
          <mxGeometry width="50" height="50" relative="1" as="geometry">
            <mxPoint x="340" y="200" as="sourcePoint" />
            <mxPoint x="440" y="430" as="targetPoint" />
          </mxGeometry>
        </mxCell>
        <mxCell id="WwpHLqtZTItnA_I-AUYj-25" value="" style="endArrow=none;html=1;rounded=0;exitX=1;exitY=0;exitDx=0;exitDy=0;entryX=0;entryY=0.5;entryDx=0;entryDy=0;" parent="1" source="WwpHLqtZTItnA_I-AUYj-1" target="WwpHLqtZTItnA_I-AUYj-14" edge="1">
          <mxGeometry width="50" height="50" relative="1" as="geometry">
            <mxPoint x="390" y="480" as="sourcePoint" />
            <mxPoint x="440" y="220" as="targetPoint" />
          </mxGeometry>
        </mxCell>
        <mxCell id="WwpHLqtZTItnA_I-AUYj-26" value="" style="endArrow=none;html=1;rounded=0;exitX=0;exitY=0.5;exitDx=0;exitDy=0;entryX=1;entryY=0.5;entryDx=0;entryDy=0;" parent="1" source="WwpHLqtZTItnA_I-AUYj-1" target="WwpHLqtZTItnA_I-AUYj-10" edge="1">
          <mxGeometry width="50" height="50" relative="1" as="geometry">
            <mxPoint x="400" y="490" as="sourcePoint" />
            <mxPoint x="450" y="440" as="targetPoint" />
          </mxGeometry>
        </mxCell>
        <mxCell id="WwpHLqtZTItnA_I-AUYj-27" value="" style="endArrow=none;html=1;rounded=0;exitX=1;exitY=0.5;exitDx=0;exitDy=0;" parent="1" source="WwpHLqtZTItnA_I-AUYj-12" edge="1">
          <mxGeometry width="50" height="50" relative="1" as="geometry">
            <mxPoint x="410" y="500" as="sourcePoint" />
            <mxPoint x="350" y="260" as="targetPoint" />
          </mxGeometry>
        </mxCell>
        <mxCell id="WwpHLqtZTItnA_I-AUYj-28" value="" style="endArrow=none;html=1;rounded=0;exitX=0;exitY=0.5;exitDx=0;exitDy=0;entryX=1;entryY=0.5;entryDx=0;entryDy=0;" parent="1" source="WwpHLqtZTItnA_I-AUYj-13" target="WwpHLqtZTItnA_I-AUYj-1" edge="1">
          <mxGeometry width="50" height="50" relative="1" as="geometry">
            <mxPoint x="420" y="510" as="sourcePoint" />
            <mxPoint x="170" y="220" as="targetPoint" />
          </mxGeometry>
        </mxCell>
        <mxCell id="WwpHLqtZTItnA_I-AUYj-29" value="" style="endArrow=none;html=1;rounded=0;entryX=1;entryY=1;entryDx=0;entryDy=0;exitX=0;exitY=0.5;exitDx=0;exitDy=0;" parent="1" source="WwpHLqtZTItnA_I-AUYj-15" target="WwpHLqtZTItnA_I-AUYj-1" edge="1">
          <mxGeometry width="50" height="50" relative="1" as="geometry">
            <mxPoint x="430" y="520" as="sourcePoint" />
            <mxPoint x="480" y="470" as="targetPoint" />
          </mxGeometry>
        </mxCell>
        <mxCell id="WwpHLqtZTItnA_I-AUYj-30" value="" style="endArrow=none;html=1;rounded=0;exitX=0;exitY=0.5;exitDx=0;exitDy=0;entryX=1;entryY=0.5;entryDx=0;entryDy=0;" parent="1" source="WwpHLqtZTItnA_I-AUYj-44" target="WwpHLqtZTItnA_I-AUYj-9" edge="1">
          <mxGeometry width="50" height="50" relative="1" as="geometry">
            <mxPoint x="170" y="580" as="sourcePoint" />
            <mxPoint x="490" y="520" as="targetPoint" />
          </mxGeometry>
        </mxCell>
        <mxCell id="WwpHLqtZTItnA_I-AUYj-32" value="" style="endArrow=none;html=1;rounded=0;entryX=0;entryY=0.5;entryDx=0;entryDy=0;exitX=1;exitY=0.5;exitDx=0;exitDy=0;" parent="1" source="WwpHLqtZTItnA_I-AUYj-44" target="WwpHLqtZTItnA_I-AUYj-7" edge="1">
          <mxGeometry width="50" height="50" relative="1" as="geometry">
            <mxPoint x="170" y="580" as="sourcePoint" />
            <mxPoint x="510" y="540" as="targetPoint" />
          </mxGeometry>
        </mxCell>
        <mxCell id="WwpHLqtZTItnA_I-AUYj-34" value="" style="endArrow=none;html=1;rounded=0;exitX=1;exitY=1;exitDx=0;exitDy=0;entryX=0;entryY=0.5;entryDx=0;entryDy=0;" parent="1" source="WwpHLqtZTItnA_I-AUYj-3" target="WwpHLqtZTItnA_I-AUYj-16" edge="1">
          <mxGeometry width="50" height="50" relative="1" as="geometry">
            <mxPoint x="480" y="665" as="sourcePoint" />
            <mxPoint x="230" y="805" as="targetPoint" />
          </mxGeometry>
        </mxCell>
        <mxCell id="WwpHLqtZTItnA_I-AUYj-35" value="" style="endArrow=none;html=1;rounded=0;exitX=1;exitY=0.5;exitDx=0;exitDy=0;entryX=0;entryY=0;entryDx=0;entryDy=0;" parent="1" source="WwpHLqtZTItnA_I-AUYj-19" target="WwpHLqtZTItnA_I-AUYj-3" edge="1">
          <mxGeometry width="50" height="50" relative="1" as="geometry">
            <mxPoint x="490" y="675" as="sourcePoint" />
            <mxPoint x="540" y="625" as="targetPoint" />
          </mxGeometry>
        </mxCell>
        <mxCell id="WwpHLqtZTItnA_I-AUYj-36" value="" style="endArrow=none;html=1;rounded=0;exitX=0;exitY=0.5;exitDx=0;exitDy=0;entryX=1;entryY=0.75;entryDx=0;entryDy=0;" parent="1" source="WwpHLqtZTItnA_I-AUYj-18" target="WwpHLqtZTItnA_I-AUYj-3" edge="1">
          <mxGeometry width="50" height="50" relative="1" as="geometry">
            <mxPoint x="500" y="685" as="sourcePoint" />
            <mxPoint x="550" y="635" as="targetPoint" />
          </mxGeometry>
        </mxCell>
        <mxCell id="WwpHLqtZTItnA_I-AUYj-37" value="" style="endArrow=none;html=1;rounded=0;exitX=0;exitY=0.5;exitDx=0;exitDy=0;entryX=1;entryY=0.5;entryDx=0;entryDy=0;" parent="1" source="WwpHLqtZTItnA_I-AUYj-3" target="WwpHLqtZTItnA_I-AUYj-17" edge="1">
          <mxGeometry width="50" height="50" relative="1" as="geometry">
            <mxPoint x="510" y="695" as="sourcePoint" />
            <mxPoint x="560" y="645" as="targetPoint" />
          </mxGeometry>
        </mxCell>
        <mxCell id="WwpHLqtZTItnA_I-AUYj-38" value="" style="endArrow=none;html=1;rounded=0;exitX=0;exitY=0.5;exitDx=0;exitDy=0;entryX=1;entryY=0;entryDx=0;entryDy=0;" parent="1" source="WwpHLqtZTItnA_I-AUYj-39" target="WwpHLqtZTItnA_I-AUYj-3" edge="1">
          <mxGeometry width="50" height="50" relative="1" as="geometry">
            <mxPoint x="520" y="705" as="sourcePoint" />
            <mxPoint x="170" y="835" as="targetPoint" />
          </mxGeometry>
        </mxCell>
        <mxCell id="WwpHLqtZTItnA_I-AUYj-39" value="&lt;u&gt;warna&lt;/u&gt;" style="ellipse;whiteSpace=wrap;html=1;" parent="1" vertex="1">
          <mxGeometry x="540" y="560" width="160" height="40" as="geometry" />
        </mxCell>
        <mxCell id="WwpHLqtZTItnA_I-AUYj-42" value="" style="endArrow=none;html=1;rounded=0;exitX=0;exitY=0.5;exitDx=0;exitDy=0;entryX=1;entryY=0.5;entryDx=0;entryDy=0;" parent="1" edge="1">
          <mxGeometry width="50" height="50" relative="1" as="geometry">
            <mxPoint x="550" y="914.66" as="sourcePoint" />
            <mxPoint x="470" y="914.66" as="targetPoint" />
          </mxGeometry>
        </mxCell>
        <mxCell id="WwpHLqtZTItnA_I-AUYj-43" value="" style="endArrow=none;html=1;rounded=0;exitX=1;exitY=0.5;exitDx=0;exitDy=0;" parent="1" edge="1">
          <mxGeometry width="50" height="50" relative="1" as="geometry">
            <mxPoint x="290" y="914.66" as="sourcePoint" />
            <mxPoint x="350" y="915" as="targetPoint" />
          </mxGeometry>
        </mxCell>
        <mxCell id="WwpHLqtZTItnA_I-AUYj-44" value="tbl_stok" style="rhombus;whiteSpace=wrap;html=1;" parent="1" vertex="1">
          <mxGeometry x="330" y="390" width="160" height="80" as="geometry" />
        </mxCell>
        <mxCell id="WwpHLqtZTItnA_I-AUYj-46" value="berjenama" style="rhombus;whiteSpace=wrap;html=1;" parent="1" vertex="1">
          <mxGeometry x="330" y="735" width="160" height="80" as="geometry" />
        </mxCell>
        <mxCell id="WwpHLqtZTItnA_I-AUYj-50" value="" style="endArrow=none;html=1;rounded=0;entryX=0.5;entryY=0;entryDx=0;entryDy=0;exitX=0.5;exitY=1;exitDx=0;exitDy=0;" parent="1" source="WwpHLqtZTItnA_I-AUYj-3" target="WwpHLqtZTItnA_I-AUYj-46" edge="1">
          <mxGeometry width="50" height="50" relative="1" as="geometry">
            <mxPoint x="170" y="625" as="sourcePoint" />
            <mxPoint x="730" y="695" as="targetPoint" />
          </mxGeometry>
        </mxCell>
        <mxCell id="WwpHLqtZTItnA_I-AUYj-51" value="" style="endArrow=none;html=1;rounded=0;exitX=0.5;exitY=1;exitDx=0;exitDy=0;entryX=0.5;entryY=0;entryDx=0;entryDy=0;" parent="1" source="WwpHLqtZTItnA_I-AUYj-46" target="WwpHLqtZTItnA_I-AUYj-2" edge="1">
          <mxGeometry width="50" height="50" relative="1" as="geometry">
            <mxPoint x="690" y="755" as="sourcePoint" />
            <mxPoint x="740" y="705" as="targetPoint" />
          </mxGeometry>
        </mxCell>
        <mxCell id="WwpHLqtZTItnA_I-AUYj-52" value="" style="endArrow=none;html=1;rounded=0;entryX=0.5;entryY=1;entryDx=0;entryDy=0;exitX=0.5;exitY=0;exitDx=0;exitDy=0;" parent="1" source="WwpHLqtZTItnA_I-AUYj-44" target="WwpHLqtZTItnA_I-AUYj-1" edge="1">
          <mxGeometry width="50" height="50" relative="1" as="geometry">
            <mxPoint x="700" y="740" as="sourcePoint" />
            <mxPoint x="750" y="690" as="targetPoint" />
          </mxGeometry>
        </mxCell>
        <mxCell id="WwpHLqtZTItnA_I-AUYj-53" value="M" style="text;html=1;strokeColor=none;fillColor=none;align=center;verticalAlign=middle;whiteSpace=wrap;rounded=0;" parent="1" vertex="1">
          <mxGeometry x="370" y="260" width="60" height="30" as="geometry" />
        </mxCell>
        <mxCell id="WwpHLqtZTItnA_I-AUYj-56" value="" style="endArrow=none;html=1;rounded=0;exitX=0.5;exitY=1;exitDx=0;exitDy=0;entryX=0.5;entryY=0;entryDx=0;entryDy=0;" parent="1" source="WwpHLqtZTItnA_I-AUYj-44" target="WwpHLqtZTItnA_I-AUYj-3" edge="1">
          <mxGeometry width="50" height="50" relative="1" as="geometry">
            <mxPoint x="110" y="440" as="sourcePoint" />
            <mxPoint x="110" y="510" as="targetPoint" />
          </mxGeometry>
        </mxCell>
        <mxCell id="WwpHLqtZTItnA_I-AUYj-54" value="N" style="text;html=1;strokeColor=none;fillColor=none;align=center;verticalAlign=middle;whiteSpace=wrap;rounded=0;" parent="1" vertex="1">
          <mxGeometry x="370" y="465" width="60" height="30" as="geometry" />
        </mxCell>
        <mxCell id="WwpHLqtZTItnA_I-AUYj-57" value="" style="endArrow=none;html=1;rounded=0;entryX=1;entryY=0.5;entryDx=0;entryDy=0;exitX=0;exitY=0.5;exitDx=0;exitDy=0;" parent="1" source="WwpHLqtZTItnA_I-AUYj-44" target="WwpHLqtZTItnA_I-AUYj-6" edge="1">
          <mxGeometry width="50" height="50" relative="1" as="geometry">
            <mxPoint x="190" y="400" as="sourcePoint" />
            <mxPoint x="440" y="470" as="targetPoint" />
          </mxGeometry>
        </mxCell>
        <mxCell id="WwpHLqtZTItnA_I-AUYj-6" value="&lt;u&gt;idkasut&lt;/u&gt;" style="ellipse;whiteSpace=wrap;html=1;" parent="1" vertex="1">
          <mxGeometry x="110" y="460" width="160" height="40" as="geometry" />
        </mxCell>
        <mxCell id="WwpHLqtZTItnA_I-AUYj-58" value="M" style="text;html=1;strokeColor=none;fillColor=none;align=center;verticalAlign=middle;whiteSpace=wrap;rounded=0;" parent="1" vertex="1">
          <mxGeometry x="370" y="675" width="60" height="30" as="geometry" />
        </mxCell>
        <mxCell id="WwpHLqtZTItnA_I-AUYj-61" value="1" style="text;html=1;align=center;verticalAlign=middle;whiteSpace=wrap;rounded=0;" parent="1" vertex="1">
          <mxGeometry x="370" y="850" width="60" height="30" as="geometry" />
        </mxCell>
        <mxCell id="YZ65nzBOvecgMJ_K9tdf-2" value="&lt;u&gt;idpengguna&lt;/u&gt;" style="ellipse;whiteSpace=wrap;html=1;" parent="1" vertex="1">
          <mxGeometry x="330" y="120" width="160" height="40" as="geometry" />
        </mxCell>
        <mxCell id="YZ65nzBOvecgMJ_K9tdf-3" value="" style="endArrow=none;html=1;rounded=0;exitX=0.5;exitY=0;exitDx=0;exitDy=0;entryX=0.5;entryY=1;entryDx=0;entryDy=0;" parent="1" source="WwpHLqtZTItnA_I-AUYj-1" target="YZ65nzBOvecgMJ_K9tdf-2" edge="1">
          <mxGeometry width="50" height="50" relative="1" as="geometry">
            <mxPoint x="400" y="200" as="sourcePoint" />
            <mxPoint x="470" y="180" as="targetPoint" />
          </mxGeometry>
        </mxCell>
        <mxCell id="YZ65nzBOvecgMJ_K9tdf-4" value="jumlah" style="ellipse;whiteSpace=wrap;html=1;" parent="1" vertex="1">
          <mxGeometry x="540" y="355" width="160" height="40" as="geometry" />
        </mxCell>
        <mxCell id="YZ65nzBOvecgMJ_K9tdf-5" value="" style="endArrow=none;html=1;rounded=0;entryX=0;entryY=0.5;entryDx=0;entryDy=0;exitX=1;exitY=0.5;exitDx=0;exitDy=0;" parent="1" source="WwpHLqtZTItnA_I-AUYj-44" target="YZ65nzBOvecgMJ_K9tdf-4" edge="1">
          <mxGeometry width="50" height="50" relative="1" as="geometry">
            <mxPoint x="500" y="440" as="sourcePoint" />
            <mxPoint x="550" y="360" as="targetPoint" />
          </mxGeometry>
        </mxCell>
        <mxCell id="YZ65nzBOvecgMJ_K9tdf-6" value="&lt;u&gt;idstok&lt;/u&gt;" style="ellipse;whiteSpace=wrap;html=1;" parent="1" vertex="1">
          <mxGeometry x="110" y="340" width="160" height="40" as="geometry" />
        </mxCell>
        <mxCell id="YZ65nzBOvecgMJ_K9tdf-7" value="" style="endArrow=none;html=1;rounded=0;entryX=1;entryY=0.5;entryDx=0;entryDy=0;" parent="1" target="YZ65nzBOvecgMJ_K9tdf-6" edge="1">
          <mxGeometry width="50" height="50" relative="1" as="geometry">
            <mxPoint x="330" y="430" as="sourcePoint" />
            <mxPoint x="550" y="360" as="targetPoint" />
          </mxGeometry>
        </mxCell>
        <mxCell id="YZ65nzBOvecgMJ_K9tdf-8" value="laptop" style="ellipse;whiteSpace=wrap;html=1;" parent="1" vertex="1">
          <mxGeometry x="120" y="685" width="160" height="40" as="geometry" />
        </mxCell>
        <mxCell id="YZ65nzBOvecgMJ_K9tdf-9" value="" style="endArrow=none;html=1;rounded=0;exitX=0;exitY=1;exitDx=0;exitDy=0;entryX=1;entryY=0.5;entryDx=0;entryDy=0;" parent="1" source="WwpHLqtZTItnA_I-AUYj-3" target="YZ65nzBOvecgMJ_K9tdf-8" edge="1">
          <mxGeometry width="50" height="50" relative="1" as="geometry">
            <mxPoint x="360" y="655" as="sourcePoint" />
            <mxPoint x="290" y="655" as="targetPoint" />
          </mxGeometry>
        </mxCell>
        <mxCell id="YZ65nzBOvecgMJ_K9tdf-10" value="rom" style="ellipse;whiteSpace=wrap;html=1;" parent="1" vertex="1">
          <mxGeometry x="540" y="615" width="160" height="40" as="geometry" />
        </mxCell>
        <mxCell id="YZ65nzBOvecgMJ_K9tdf-11" value="" style="endArrow=none;html=1;rounded=0;exitX=0;exitY=0.669;exitDx=0;exitDy=0;entryX=1;entryY=0.5;entryDx=0;entryDy=0;exitPerimeter=0;" parent="1" source="YZ65nzBOvecgMJ_K9tdf-10" target="WwpHLqtZTItnA_I-AUYj-3" edge="1">
          <mxGeometry width="50" height="50" relative="1" as="geometry">
            <mxPoint x="550" y="695" as="sourcePoint" />
            <mxPoint x="480" y="655" as="targetPoint" />
          </mxGeometry>
        </mxCell>
      </root>
    </mxGraphModel>
  </diagram>
</mxfile>
